<svg width="512" height="512" viewBox="0 0 512 512" fill="none" xmlns="http://www.w3.org/2000/svg">
<rect width="512" height="512" fill="#13111A"/>
<path fill-rule="evenodd" clip-rule="evenodd" d="M266.41 111.182L409.859 254.797L389.891 274.788L351.18 236.032V302.559C351.18 327.783 320.757 340.372 302.956 322.55L180.793 200.246V295.251L255.014 369.557L235.046 389.548L97.0127 251.402L116.981 231.411L152.49 266.962V200.246C152.49 175.022 182.912 162.433 200.714 180.255L322.876 302.559V207.743L246.443 131.173L266.41 111.182Z" fill="#2D2B33"/>
<path fill-rule="evenodd" clip-rule="evenodd" d="M283.931 104.817C297.305 114.672 302.297 127.119 301.402 144.328C300.461 162.15 300.037 193.363 299.754 216.419C299.519 233.062 299.377 245.509 299.095 245.604C293.82 239.144 288.546 232.685 283.271 226.178C256.946 193.834 230.62 161.49 204.247 129.099C207.12 126.082 209.616 123.441 211.829 121.037C219.129 113.21 223.744 108.306 231.044 102.036C245.313 89.777 267.306 90.72 282.047 103.073C282.329 103.309 282.565 103.544 282.847 103.78C283.177 104.11 283.554 104.44 283.931 104.723V104.817ZM125.082 299.259C125.035 299.73 124.988 300.202 124.893 300.72C90.4676 275.637 82.3203 243.293 125.317 209.912C125.317 219.955 125.317 229.809 125.317 239.569C125.317 258.805 125.317 277.665 125.317 296.524C125.317 297.42 125.223 298.269 125.082 299.212V299.259ZM228.03 407.229C214.655 397.375 209.663 384.928 210.558 367.719C211.5 349.897 211.924 318.684 212.206 295.628C212.442 278.985 212.583 266.538 212.865 266.443L228.595 285.774L228.736 285.963C255.015 318.26 281.293 350.557 307.666 382.901C304.793 385.918 302.297 388.559 300.084 390.963C292.784 398.79 288.169 403.693 280.869 409.964C266.6 422.223 244.607 421.28 229.866 408.927C229.584 408.691 229.348 408.455 229.066 408.22C228.736 407.89 228.359 407.56 227.983 407.277L228.03 407.229ZM387.114 211.987V301.852C432.607 265.878 417.961 233.298 387.114 211.987Z" fill="url(#paint0_linear_254_1476)"/>
<defs>
<linearGradient id="paint0_linear_254_1476" x1="151.727" y1="277.348" x2="416" y2="199.387" gradientUnits="userSpaceOnUse">
<stop stop-color="#23C3C4"/>
<stop offset="1" stop-color="#A801F1"/>
</linearGradient>
</defs>
</svg>
