<svg width="512" height="512" viewBox="0 0 512 512" fill="none" xmlns="http://www.w3.org/2000/svg">
<rect width="512" height="512" fill="#000000"/>
<path d="M296.647 365.787L214.354 266.884V341.274C214.354 342.031 214.354 342.788 214.307 343.546H243.599C247.621 343.546 249.798 348.278 247.195 351.354L219.796 383.58L175.172 432.416C174.746 432.937 174.083 433.268 173.373 433.268C172.664 433.268 172.048 432.984 171.575 432.416L101.302 349.792C100.403 348.704 100.829 347.615 100.971 347.284C101.113 346.953 101.728 345.912 103.1 345.912H133.102V316.146L128.37 341.18H103.1C100.308 341.18 97.8477 342.741 96.6647 345.297C95.4816 347.852 95.9075 350.739 97.7058 352.868L167.931 435.492C169.304 437.101 171.244 438 173.326 438C175.408 438 177.396 437.101 178.721 435.492L219.843 387.082L228.645 395.884C230.491 397.729 232.478 399.338 234.608 400.758C235.649 401.468 236.737 402.083 237.826 402.651C251.029 409.56 267.449 408.187 279.327 398.486C280.321 397.682 281.267 396.83 282.214 395.884L304.644 373.453L303.982 372.885C301.284 370.803 298.824 368.484 296.599 365.834L296.647 365.787Z" fill="url(#paint0_linear_254_1282)"/>
<path d="M414.575 159.085L344.35 76.5081C342.977 74.8991 341.037 74 338.955 74C336.873 74 334.885 74.8991 333.56 76.5081L292.39 124.918L282.216 114.744C275.686 108.214 267.31 104.57 258.744 103.813C254.769 103.482 250.747 103.813 246.819 104.665C240.194 106.226 233.853 109.539 228.695 114.697L206.832 136.559C210.098 138.926 213.079 141.623 215.682 144.746L297.974 243.649V168.36H268.777C266.553 168.36 264.896 166.94 264.281 165.095C263.808 163.628 263.997 161.924 265.18 160.552L292.58 128.325L337.157 79.584C337.583 79.0634 338.245 78.7322 338.955 78.7322C339.665 78.7322 340.28 79.0161 340.753 79.584L410.979 162.208C411.878 163.296 411.452 164.385 411.31 164.716C411.168 165.047 410.553 166.088 409.181 166.088H379.179V195.854L383.911 170.82H409.181C411.973 170.82 414.433 169.259 415.616 166.703C416.799 164.148 416.374 161.261 414.575 159.132V159.085Z" fill="url(#paint1_linear_254_1282)"/>
<path d="M114.926 282.074L130.731 297.88V212.7L114.926 228.506C108.443 234.989 104.799 243.223 103.995 251.646C103.9 252.829 103.805 254.06 103.805 255.29C103.805 257.704 104.042 260.117 104.515 262.53C105.887 269.676 109.389 276.538 114.926 282.074Z" fill="url(#paint2_linear_254_1282)"/>
<path d="M381.536 214.073V296.508L395.922 282.074C410.686 267.31 410.686 243.318 395.922 228.553L381.489 214.12L381.536 214.073Z" fill="url(#paint3_linear_254_1282)"/>
<defs>
<linearGradient id="paint0_linear_254_1282" x1="136.632" y1="425.348" x2="439.95" y2="425.544" gradientUnits="userSpaceOnUse">
<stop stop-color="#23C3C4"/>
<stop offset="1" stop-color="#A801F1"/>
</linearGradient>
<linearGradient id="paint1_linear_254_1282" x1="136.632" y1="425.348" x2="439.95" y2="425.544" gradientUnits="userSpaceOnUse">
<stop stop-color="#23C3C4"/>
<stop offset="1" stop-color="#A801F1"/>
</linearGradient>
<linearGradient id="paint2_linear_254_1282" x1="136.632" y1="425.348" x2="439.95" y2="425.544" gradientUnits="userSpaceOnUse">
<stop stop-color="#23C3C4"/>
<stop offset="1" stop-color="#A801F1"/>
</linearGradient>
<linearGradient id="paint3_linear_254_1282" x1="136.632" y1="425.348" x2="439.95" y2="425.544" gradientUnits="userSpaceOnUse">
<stop stop-color="#23C3C4"/>
<stop offset="1" stop-color="#A801F1"/>
</linearGradient>
</defs>
</svg>
