<svg id="rocket" xmlns="http://www.w3.org/2000/svg" xmlns:xlink="http://www.w3.org/1999/xlink" width="17.705" height="17.68" viewBox="0 0 17.705 17.68">
  <defs>
    <clipPath id="clip-path">
      <rect id="Rectangle_348" data-name="Rectangle 348" width="17.705" height="17.68" fill="none"/>
    </clipPath>
  </defs>
  <g id="Group_1065" data-name="Group 1065" clip-path="url(#clip-path)">
    <path id="Path_1562" data-name="Path 1562" d="M34.394,0h1.47c.077.013.153.029.23.039.454.06.91.111,1.362.181a.546.546,0,0,1,.485.5c.016.084.033.169.044.254q.086.659.17,1.318v1.47c-.013.077-.033.154-.039.232a6.9,6.9,0,0,1-.939,3.024A9.008,9.008,0,0,1,34.2,9.944a.325.325,0,0,0-.171.312q.01,1.535,0,3.07a1.624,1.624,0,0,1-.95,1.548q-1.454.736-2.911,1.466a.8.8,0,0,1-1.258-.77q0-1.459,0-2.918c0-.075-.007-.151-.01-.226l-.05-.029c-.2.212-.4.429-.606.635a1.044,1.044,0,0,1-1.585,0q-.728-.725-1.452-1.452a1.064,1.064,0,0,1,0-1.708l.579-.58h-.3c-.987,0-1.974,0-2.962,0a.749.749,0,0,1-.816-.592,1.222,1.222,0,0,1,.119-.659c.47-.98.963-1.948,1.452-2.918a1.672,1.672,0,0,1,1.611-.993c.98.005,1.96,0,2.94,0a.393.393,0,0,0,.369-.19c.337-.475.673-.955,1.053-1.395A6.958,6.958,0,0,1,33.117.2c.42-.09.851-.132,1.277-.2m-.371,2.847a1.28,1.28,0,1,0,1.286,1.284,1.275,1.275,0,0,0-1.286-1.284" transform="translate(-20.451)"/>
    <path id="Path_1563" data-name="Path 1563" d="M5.508,213.168a1.937,1.937,0,0,1-1.084,1.707c-.787.382-1.6.708-2.418,1.029-.494.195-1.009.337-1.516.5-.325.1-.567-.11-.467-.433a20.525,20.525,0,0,1,1.534-3.978,2.07,2.07,0,0,1,2.391-.973,2.153,2.153,0,0,1,1.561,2.15" transform="translate(0 -198.749)"/>
  </g>
</svg>
