<svg width="513" height="512" viewBox="0 0 513 512" fill="none" xmlns="http://www.w3.org/2000/svg">
<rect width="512" height="512" transform="translate(0.74707)" fill="#1D2140"/>
<g clip-path="url(#clip0_140_66)">
<path d="M150.284 176.955L158.565 162.655L159.318 161.337L162.423 155.975L164.211 152.776L172.211 139.04L180.68 124.364H333.32L342.166 139.699L366.257 139.793H379.62L361.269 108.182L351.953 92H333.32H180.68H161.953L152.636 108.182L76.3165 240.271L67 256.453L76.3165 272.635L104.737 321.933L120.358 310.643L131.18 302.929L104.36 256.453L150.284 176.955Z" fill="#FFD987"/>
<path d="M437.589 240.271L409.169 191.067L393.642 202.262L382.82 210.071L409.64 256.453L363.622 336.045L355.435 350.251L354.682 351.663L351.577 357.025L349.694 360.224L341.79 373.866L333.32 388.636H180.68L171.834 373.301L147.743 373.207H134.38L152.636 404.818L161.953 421H180.68H333.32H351.953L361.269 404.818L437.589 272.635L447 256.453L437.589 240.271Z" fill="#FFD987"/>
<path d="M384.325 163.125H361.175L348.565 163.031L330.026 162.937L192.914 162.466L339.907 322.78L331.344 222.96L354.87 206.026L367.951 196.618L376.797 190.22L393.171 178.46L414.251 163.219L384.325 163.125Z" fill="white"/>
<path d="M182.656 290.04L159.13 306.974L145.955 316.382L137.109 322.78L120.829 334.54L99.7488 349.687L129.674 349.781L152.825 349.875L165.341 349.969H183.974L321.086 350.439L174.093 190.126L182.656 290.04Z" fill="white"/>
</g>
<defs>
<clipPath id="clip0_140_66">
<rect width="380" height="329" fill="white" transform="translate(67 92)"/>
</clipPath>
</defs>
</svg>
